<svg width="16" height="16" viewBox="0 0 16 16" fill="none" xmlns="http://www.w3.org/2000/svg">
<g clip-path="url(#clip0_4007_19)">
<rect width="16" height="16" fill="#E44D26"/>
<path d="M0.0253906 4.00195H4.88867V5.37305H1.7832V7.23047H4.19727V8.60742H1.7832V10.5703H4.88867V12H0.0253906V4.00195ZM1.51367 2.89453L3.51172 1.05469L4.16797 2.0332L2.00586 3.38672L1.51367 2.89453ZM4.85938 4.00195H9.8457V5.50195H8.21094V12H6.45312V5.50195H4.85938V4.00195ZM13.332 7.73438H16.1094V12H15.3652L15.1367 11.0859C14.707 11.7773 14.0625 12.123 13.2031 12.123C12.293 12.123 11.5703 11.7656 11.0352 11.0508C10.5039 10.332 10.2383 9.36719 10.2383 8.15625C10.2383 6.83984 10.5 5.79883 11.0234 5.0332C11.5508 4.26367 12.3281 3.87891 13.3555 3.87891C14.9922 3.87891 15.9102 4.79297 16.1094 6.62109L14.5273 6.87891C14.418 5.83203 14.0391 5.30859 13.3906 5.30859C12.9961 5.30859 12.6797 5.50195 12.4414 5.88867C12.207 6.27539 12.0898 7.00781 12.0898 8.08594C12.0898 9.04297 12.2051 9.7168 12.4355 10.1074C12.666 10.498 13.0039 10.6934 13.4492 10.6934C14.1641 10.6934 14.5234 10.166 14.5273 9.11133H13.332V7.73438Z" fill="#EBEBEB"/>
</g>
<defs>
<clipPath id="clip0_4007_19">
<rect width="16" height="16" fill="white"/>
</clipPath>
</defs>
</svg>
