<svg width="16" height="16" viewBox="0 0 16 16" fill="none" xmlns="http://www.w3.org/2000/svg">
<path d="M7 6V4H9V6H7Z" fill="white"/>
<path fill-rule="evenodd" clip-rule="evenodd" d="M11.677 14L14.077 8L11.677 2H9.52297L11.923 8L10.323 12H10C9.44772 12 9 11.5523 9 11V7H4.47704L6.47704 2H4.32297L1.92297 8L2.32297 9L7 9V11C7 12.4995 8.10006 13.742 9.53716 13.9645C9.68802 13.9879 9.84259 14 10 14L11.677 14ZM4.85812 9.95271L6.47704 14H4.32297L2.37266 9.12422L4.85812 9.95271Z" fill="white"/>
</svg>
