<svg width="16" height="16" viewBox="0 0 16 16" fill="none" xmlns="http://www.w3.org/2000/svg">
<path d="M6.75 6V6.25H7H9H9.25V6V4V3.75H9H7H6.75V4V6ZM11.677 14.25H11.8463L11.9092 14.0928L14.3092 8.09285L14.3463 8L14.3092 7.90715L11.9092 1.90715L11.8463 1.75H11.677H9.52297H9.15371L9.29085 2.09285L11.6537 8L10.1537 11.75H10C9.58579 11.75 9.25 11.4142 9.25 11V7V6.75H9H4.8463L6.70916 2.09285L6.8463 1.75H6.47704H4.32297H4.15372L4.09086 1.90715L1.69085 7.90715L1.65372 8L1.69085 8.09285L1.94035 8.71659L2.09085 9.09285L2.14054 9.21707L2.15371 9.25L4.09085 14.0928L4.15371 14.25H4.32297H6.47704H6.8463L6.70916 13.9072L5.09024 9.85986L5.04718 9.7522L4.93718 9.71554L3.54057 9.25L6.75 9.25V11C6.75 12.6246 7.94183 13.9704 9.4989 14.2116C9.66237 14.2369 9.82974 14.25 10 14.25L11.677 14.25Z" fill="white" stroke="#B00B69" stroke-width="0.5" stroke-linecap="square"/>
</svg>
